<svg xmlns="http://www.w3.org/2000/svg" xmlns:xlink="http://www.w3.org/1999/xlink" version="1.1" x="0px" y="0px" viewBox="0 0 100 100" enable-background="new 0 0 100 100" xml:space="preserve"><path d="M45.5,78.2c-0.1,0-0.1-0.1,0-0.4C45.6,78.1,45.5,78.2,45.5,78.2z"/><path d="M49.7,60.4c-1.7,15.7-9,16.8-9,16.8h21.4c0,0-7.2-1-9-16.8C59,69,72.4,70.1,78,60.6  c8.4-14.3-6.4-24.4-15.8-31c-2.8-2-9-6.4-10.7-10.8c-1.7,4.4-7.9,8.8-10.7,10.8c-9.4,6.7-24.3,16.7-15.8,31  C30.5,70.1,44,69,49.7,60.4z"/><path d="M45.5,76.7c-0.1,0-0.1,0.1,0,0.4C45.6,76.8,45.5,76.6,45.5,76.7z"/></svg>