<svg xmlns="http://www.w3.org/2000/svg" xmlns:xlink="http://www.w3.org/1999/xlink" version="1.1" x="0px" y="0px" viewBox="0 0 100 100" enable-background="new 0 0 100 100" xml:space="preserve"><path d="M39.1,67c4.6,0,8.6-2.3,11.1-5.8c-1.9,14.8-8.9,15.8-8.9,15.8h21.4c0,0-6.9-1-8.9-15.8  c2.5,3.5,6.5,5.8,11.1,5.8c7.5,0,13.6-6.1,13.6-13.6c0-7.5-6.1-13.6-13.6-13.6c-0.9,0-1.8,0.1-2.6,0.3c2.1-2.4,3.3-5.5,3.3-8.9  c0-7.5-6.1-13.6-13.6-13.6c-7.5,0-13.6,6.1-13.6,13.6c0,3.4,1.3,6.5,3.3,8.9c-0.9-0.2-1.7-0.3-2.6-0.3c-7.5,0-13.6,6.1-13.6,13.6  C25.5,60.9,31.6,67,39.1,67z"/></svg>